<svg width="976" height="969" viewBox="0 0 976 969" fill="none" xmlns="http://www.w3.org/2000/svg">
<ellipse cx="488" cy="484.5" rx="488" ry="484.5" fill="#FF66C4"/>
<path d="M645.69 517.631C621.139 495.718 604.855 497.89 573.053 517.631C542.947 498.507 526.918 497.984 499.943 517.631C492.897 524.639 491.413 528.533 489.566 535.463C487.358 548.406 487.601 555.844 489.566 569.298C492.598 578.539 496.163 583.4 504.66 591.702L573.053 658L641.445 591.702C650.486 581.682 653.848 576.795 657.01 569.298C660.624 557.639 661.353 550.545 657.01 535.463C654.238 528.389 651.865 524.481 645.69 517.631Z" stroke="#FCEBE7" stroke-width="20"/>
<path d="M637.081 501.877C649.93 471.414 651.237 453.254 637.081 417.877C631.293 407.753 627.354 402.439 618.581 393.877C572.038 359.812 543.226 361.615 488.081 393.877C427.48 360.942 398.648 362.492 354.581 393.877C347.237 400.76 343.276 406.43 338.081 417.877C324.984 448.5 327.004 467.234 338.081 501.877L486.581 650.377L519.581 617.377" stroke="#FCEBE7" stroke-width="20"/>
<line x1="53" y1="507.5" x2="173" y2="507.5" stroke="#FCEBE7" stroke-width="5"/>
<line x1="797" y1="507.5" x2="917" y2="507.5" stroke="#FCEBE7" stroke-width="5"/>
<path d="M387.134 426C371.667 450.087 372.924 462.923 387.134 485" stroke="#FCEBE7" stroke-width="20"/>
<path d="M272.15 245.14C271.07 245.86 269.6 246.67 267.74 247.57C265.88 248.47 263.69 249.22 261.17 249.82C258.71 250.42 256.01 250.72 253.07 250.72C248.03 250.66 243.47 249.76 239.39 248.02C235.37 246.28 231.95 243.91 229.13 240.91C226.31 237.91 224.12 234.46 222.56 230.56C221.06 226.6 220.31 222.4 220.31 217.96C220.31 213.1 221.09 208.63 222.65 204.55C224.27 200.41 226.52 196.84 229.4 193.84C232.28 190.78 235.67 188.41 239.57 186.73C243.53 185.05 247.85 184.21 252.53 184.21C256.43 184.21 259.97 184.75 263.15 185.83C266.33 186.85 269.06 188.08 271.34 189.52L267.83 197.62C266.03 196.42 263.84 195.28 261.26 194.2C258.74 193.12 255.92 192.58 252.8 192.58C249.62 192.58 246.62 193.21 243.8 194.47C240.98 195.73 238.49 197.5 236.33 199.78C234.17 202.06 232.46 204.73 231.2 207.79C230 210.79 229.4 214.03 229.4 217.51C229.4 221.05 229.94 224.35 231.02 227.41C232.16 230.41 233.75 233.02 235.79 235.24C237.89 237.46 240.41 239.2 243.35 240.46C246.29 241.72 249.59 242.35 253.25 242.35C256.55 242.35 259.49 241.84 262.07 240.82C264.65 239.8 266.78 238.66 268.46 237.4L272.15 245.14ZM290.45 217.51C290.45 213.01 291.29 208.78 292.97 204.82C294.71 200.8 297.11 197.26 300.17 194.2C303.23 191.08 306.74 188.65 310.7 186.91C314.72 185.11 319.04 184.21 323.66 184.21C328.22 184.21 332.48 185.11 336.44 186.91C340.46 188.65 344 191.08 347.06 194.2C350.18 197.26 352.61 200.8 354.35 204.82C356.09 208.78 356.96 213.01 356.96 217.51C356.96 222.13 356.09 226.45 354.35 230.47C352.61 234.49 350.18 238.03 347.06 241.09C344 244.09 340.46 246.46 336.44 248.2C332.48 249.88 328.22 250.72 323.66 250.72C319.04 250.72 314.72 249.88 310.7 248.2C306.74 246.52 303.23 244.18 300.17 241.18C297.11 238.18 294.71 234.67 292.97 230.65C291.29 226.63 290.45 222.25 290.45 217.51ZM299.45 217.6C299.45 221.02 300.08 224.23 301.34 227.23C302.6 230.17 304.34 232.78 306.56 235.06C308.78 237.34 311.36 239.14 314.3 240.46C317.24 241.72 320.42 242.35 323.84 242.35C327.2 242.35 330.35 241.72 333.29 240.46C336.23 239.14 338.78 237.34 340.94 235.06C343.1 232.78 344.81 230.17 346.07 227.23C347.33 224.23 347.96 220.99 347.96 217.51C347.96 214.09 347.33 210.88 346.07 207.88C344.81 204.82 343.07 202.15 340.85 199.87C338.63 197.59 336.05 195.82 333.11 194.56C330.17 193.24 327.02 192.58 323.66 192.58C320.24 192.58 317.06 193.24 314.12 194.56C311.18 195.88 308.6 197.68 306.38 199.96C304.16 202.24 302.45 204.91 301.25 207.97C300.05 210.97 299.45 214.18 299.45 217.6ZM435.658 252.07L385.348 201.04L387.868 201.67L388.048 250H379.318V182.95H379.768L429.538 234.16L427.468 233.71L427.288 184.93H435.928V252.07H435.658ZM462.29 184.93H504.59V193.3H471.02V213.1H500.99V221.47H471.02V241.63H505.85V250H462.29V184.93ZM523.251 184.93H534.321L576.711 250H565.551L523.251 184.93ZM522.351 250L544.941 214.63L549.171 223.09L533.151 250H522.351ZM549.441 211.48L565.281 184.93H575.811L554.121 218.77L549.441 211.48ZM590.29 250L618.73 182.23H619.27L647.62 250H637.63L616.39 195.91L622.6 191.86L598.84 250H590.29ZM606.94 225.34H631.15L634.03 232.9H604.42L606.94 225.34ZM625.84 176.74C623.92 176.74 622.33 176.32 621.07 175.48C619.87 174.58 618.73 173.65 617.65 172.69C616.93 172.03 616.21 171.43 615.49 170.89C614.77 170.29 613.96 169.99 613.06 169.99C612.34 169.99 611.68 170.29 611.08 170.89C610.54 171.43 610.12 172.21 609.82 173.23C609.52 174.19 609.37 175.39 609.37 176.83L604.87 176.74C604.69 174.4 604.93 172.3 605.59 170.44C606.31 168.58 607.33 167.11 608.65 166.03C610.03 164.95 611.65 164.41 613.51 164.41C615.07 164.41 616.42 164.83 617.56 165.67C618.7 166.51 619.75 167.38 620.71 168.28C621.55 169.12 622.36 169.87 623.14 170.53C623.92 171.13 624.76 171.43 625.66 171.43C626.86 171.43 627.7 170.8 628.18 169.54C628.72 168.22 628.99 166.48 628.99 164.32L633.49 164.41C633.73 166.87 633.52 169.03 632.86 170.89C632.26 172.75 631.33 174.19 630.07 175.21C628.81 176.23 627.4 176.74 625.84 176.74ZM659.784 217.51C659.784 213.01 660.624 208.78 662.304 204.82C664.044 200.8 666.444 197.26 669.504 194.2C672.564 191.08 676.074 188.65 680.034 186.91C684.054 185.11 688.374 184.21 692.994 184.21C697.554 184.21 701.814 185.11 705.774 186.91C709.794 188.65 713.334 191.08 716.394 194.2C719.514 197.26 721.944 200.8 723.684 204.82C725.424 208.78 726.294 213.01 726.294 217.51C726.294 222.13 725.424 226.45 723.684 230.47C721.944 234.49 719.514 238.03 716.394 241.09C713.334 244.09 709.794 246.46 705.774 248.2C701.814 249.88 697.554 250.72 692.994 250.72C688.374 250.72 684.054 249.88 680.034 248.2C676.074 246.52 672.564 244.18 669.504 241.18C666.444 238.18 664.044 234.67 662.304 230.65C660.624 226.63 659.784 222.25 659.784 217.51ZM668.784 217.6C668.784 221.02 669.414 224.23 670.674 227.23C671.934 230.17 673.674 232.78 675.894 235.06C678.114 237.34 680.694 239.14 683.634 240.46C686.574 241.72 689.754 242.35 693.174 242.35C696.534 242.35 699.684 241.72 702.624 240.46C705.564 239.14 708.114 237.34 710.274 235.06C712.434 232.78 714.144 230.17 715.404 227.23C716.664 224.23 717.294 220.99 717.294 217.51C717.294 214.09 716.664 210.88 715.404 207.88C714.144 204.82 712.404 202.15 710.184 199.87C707.964 197.59 705.384 195.82 702.444 194.56C699.504 193.24 696.354 192.58 692.994 192.58C689.574 192.58 686.394 193.24 683.454 194.56C680.514 195.88 677.934 197.68 675.714 199.96C673.494 202.24 671.784 204.91 670.584 207.97C669.384 210.97 668.784 214.18 668.784 217.6Z" fill="#FCEBE7"/>
<path d="M294.752 788.568C294.752 790.92 295.304 793.032 296.408 794.904C297.56 796.728 299.072 798.168 300.944 799.224C302.816 800.28 304.928 800.808 307.28 800.808C309.728 800.808 311.912 800.28 313.832 799.224C315.752 798.168 317.264 796.728 318.368 794.904C319.472 793.032 320.024 790.92 320.024 788.568V754.944H326.864V788.784C326.864 792.576 325.976 795.888 324.2 798.72C322.472 801.552 320.12 803.736 317.144 805.272C314.216 806.808 310.928 807.576 307.28 807.576C303.632 807.576 300.344 806.808 297.416 805.272C294.488 803.736 292.16 801.552 290.432 798.72C288.704 795.888 287.84 792.576 287.84 788.784V754.944H294.752V788.568ZM345.472 777.192L346.048 784.464L345.76 783.312C346.72 781.104 348.28 779.352 350.44 778.056C352.6 776.712 355.096 776.04 357.928 776.04C360.76 776.04 363.064 776.88 364.84 778.56C366.664 780.192 367.6 782.328 367.648 784.968V807H360.88V787.344C360.832 785.712 360.352 784.392 359.44 783.384C358.576 782.328 357.208 781.8 355.336 781.8C353.608 781.8 352.048 782.28 350.656 783.24C349.264 784.2 348.16 785.52 347.344 787.2C346.576 788.88 346.192 790.824 346.192 793.032V807H339.496V777.192H345.472ZM379.293 777.192H385.989V807H379.293V777.192ZM378.789 766.392C378.789 765.336 379.197 764.448 380.013 763.728C380.877 763.008 381.813 762.648 382.821 762.648C383.829 762.648 384.717 763.008 385.485 763.728C386.301 764.448 386.709 765.336 386.709 766.392C386.709 767.496 386.301 768.408 385.485 769.128C384.717 769.8 383.829 770.136 382.821 770.136C381.813 770.136 380.877 769.776 380.013 769.056C379.197 768.336 378.789 767.448 378.789 766.392ZM409.67 807.864L393.11 777.192H401.03L412.262 800.88L408.158 800.736L418.454 777.192H425.942L410.03 807.864H409.67ZM446.273 807.72C442.865 807.72 439.937 807.048 437.489 805.704C435.041 804.312 433.145 802.44 431.801 800.088C430.505 797.688 429.857 794.952 429.857 791.88C429.857 788.952 430.601 786.288 432.089 783.888C433.577 781.488 435.569 779.568 438.065 778.128C440.561 776.688 443.345 775.968 446.417 775.968C450.353 775.968 453.617 777.12 456.209 779.424C458.801 781.728 460.553 784.896 461.465 788.928L436.913 797.568L435.329 793.608L455.489 786.264L454.049 787.2C453.473 785.616 452.513 784.248 451.169 783.096C449.825 781.896 448.073 781.296 445.913 781.296C444.089 781.296 442.457 781.752 441.017 782.664C439.577 783.528 438.449 784.728 437.633 786.264C436.817 787.8 436.409 789.552 436.409 791.52C436.409 793.584 436.841 795.408 437.705 796.992C438.569 798.528 439.745 799.752 441.233 800.664C442.769 801.528 444.497 801.96 446.417 801.96C447.713 801.96 448.961 801.72 450.161 801.24C451.409 800.76 452.561 800.136 453.617 799.368L456.713 804.336C455.225 805.344 453.545 806.16 451.673 806.784C449.849 807.408 448.049 807.72 446.273 807.72ZM475.831 777.192L476.479 785.832L476.119 784.68C476.887 782.856 477.991 781.32 479.431 780.072C480.919 778.776 482.455 777.792 484.039 777.12C485.671 776.4 487.087 776.04 488.287 776.04L487.927 782.664C485.671 782.52 483.679 782.952 481.951 783.96C480.271 784.968 478.927 786.312 477.919 787.992C476.959 789.672 476.479 791.472 476.479 793.392V807H469.855V777.192H475.831ZM505.278 807.576C503.166 807.576 501.102 807.216 499.086 806.496C497.118 805.728 495.486 804.6 494.19 803.112L496.998 799.224C498.246 800.424 499.518 801.336 500.814 801.96C502.158 802.536 503.478 802.824 504.774 802.824C505.734 802.824 506.622 802.704 507.438 802.464C508.254 802.224 508.902 801.84 509.382 801.312C509.91 800.736 510.174 799.968 510.174 799.008C510.174 797.952 509.814 797.112 509.094 796.488C508.422 795.864 507.534 795.36 506.43 794.976C505.374 794.592 504.246 794.232 503.046 793.896C500.598 793.08 498.726 791.952 497.43 790.512C496.134 789.072 495.486 787.32 495.486 785.256C495.486 783.672 495.87 782.208 496.638 780.864C497.454 779.472 498.63 778.344 500.166 777.48C501.75 776.616 503.694 776.184 505.998 776.184C508.062 776.184 509.91 776.448 511.542 776.976C513.174 777.456 514.71 778.272 516.15 779.424L513.486 783.6C512.622 782.688 511.59 782.016 510.39 781.584C509.19 781.152 508.11 780.912 507.15 780.864C506.334 780.816 505.542 780.936 504.774 781.224C504.054 781.512 503.454 781.92 502.974 782.448C502.494 782.976 502.254 783.6 502.254 784.32C502.254 785.328 502.59 786.144 503.262 786.768C503.934 787.392 504.798 787.896 505.854 788.28C506.958 788.616 508.038 788.976 509.094 789.36C510.582 789.792 511.902 790.368 513.054 791.088C514.206 791.808 515.118 792.696 515.79 793.752C516.51 794.808 516.87 796.128 516.87 797.712C516.87 799.488 516.438 801.144 515.574 802.68C514.758 804.168 513.486 805.368 511.758 806.28C510.078 807.144 507.918 807.576 505.278 807.576ZM526.246 777.192H532.942V807H526.246V777.192ZM525.742 766.392C525.742 765.336 526.15 764.448 526.966 763.728C527.83 763.008 528.766 762.648 529.774 762.648C530.782 762.648 531.67 763.008 532.438 763.728C533.254 764.448 533.662 765.336 533.662 766.392C533.662 767.496 533.254 768.408 532.438 769.128C531.67 769.8 530.782 770.136 529.774 770.136C528.766 770.136 527.83 769.776 526.966 769.056C526.15 768.336 525.742 767.448 525.742 766.392ZM547.407 764.088H554.103V777.336H562.311V782.592H554.103V807H547.407V782.592H541.935V777.336H547.407V764.088ZM582.786 807.72C580.002 807.72 577.458 807.12 575.154 805.92C572.898 804.72 571.098 802.968 569.754 800.664C568.458 798.312 567.81 795.456 567.81 792.096C567.81 788.784 568.506 785.928 569.898 783.528C571.29 781.08 573.138 779.208 575.442 777.912C577.794 776.616 580.362 775.968 583.146 775.968C585.93 775.968 588.282 776.616 590.202 777.912C592.122 779.16 593.586 780.648 594.594 782.376L594.162 783.528L594.81 777.192H601.002V807H594.306V799.224L595.026 800.952C594.834 801.432 594.402 802.056 593.73 802.824C593.106 803.544 592.242 804.288 591.138 805.056C590.082 805.824 588.858 806.472 587.466 807C586.074 807.48 584.514 807.72 582.786 807.72ZM584.586 802.176C586.266 802.176 587.778 801.864 589.122 801.24C590.466 800.616 591.57 799.752 592.434 798.648C593.346 797.496 593.97 796.128 594.306 794.544V788.712C593.922 787.272 593.25 786.024 592.29 784.968C591.33 783.864 590.178 783.024 588.834 782.448C587.49 781.824 586.002 781.512 584.37 781.512C582.594 781.512 580.962 781.944 579.474 782.808C577.986 783.672 576.786 784.872 575.874 786.408C575.01 787.944 574.578 789.744 574.578 791.808C574.578 793.728 575.034 795.48 575.946 797.064C576.858 798.648 578.082 799.896 579.618 800.808C581.154 801.72 582.81 802.176 584.586 802.176ZM594.738 762.072L585.594 771.72H581.346L587.322 762.072H594.738ZM618.566 777.192L619.214 785.832L618.854 784.68C619.622 782.856 620.726 781.32 622.166 780.072C623.654 778.776 625.19 777.792 626.774 777.12C628.406 776.4 629.822 776.04 631.022 776.04L630.662 782.664C628.406 782.52 626.414 782.952 624.686 783.96C623.006 784.968 621.662 786.312 620.654 787.992C619.694 789.672 619.214 791.472 619.214 793.392V807H612.59V777.192H618.566ZM639.66 777.192H646.356V807H639.66V777.192ZM639.156 766.392C639.156 765.336 639.564 764.448 640.38 763.728C641.244 763.008 642.18 762.648 643.188 762.648C644.196 762.648 645.084 763.008 645.852 763.728C646.668 764.448 647.076 765.336 647.076 766.392C647.076 767.496 646.668 768.408 645.852 769.128C645.084 769.8 644.196 770.136 643.188 770.136C642.18 770.136 641.244 769.776 640.38 769.056C639.564 768.336 639.156 767.448 639.156 766.392ZM670.325 807.72C667.541 807.72 664.997 807.12 662.693 805.92C660.437 804.72 658.637 802.968 657.293 800.664C655.997 798.312 655.349 795.456 655.349 792.096C655.349 788.784 656.045 785.928 657.437 783.528C658.829 781.08 660.677 779.208 662.981 777.912C665.333 776.616 667.901 775.968 670.685 775.968C673.469 775.968 675.821 776.616 677.741 777.912C679.661 779.16 681.125 780.648 682.133 782.376L681.701 783.528L682.349 777.192H688.541V807H681.845V799.224L682.565 800.952C682.373 801.432 681.941 802.056 681.269 802.824C680.645 803.544 679.781 804.288 678.677 805.056C677.621 805.824 676.397 806.472 675.005 807C673.613 807.48 672.053 807.72 670.325 807.72ZM672.125 802.176C673.805 802.176 675.317 801.864 676.661 801.24C678.005 800.616 679.109 799.752 679.973 798.648C680.885 797.496 681.509 796.128 681.845 794.544V788.712C681.461 787.272 680.789 786.024 679.829 784.968C678.869 783.864 677.717 783.024 676.373 782.448C675.029 781.824 673.541 781.512 671.909 781.512C670.133 781.512 668.501 781.944 667.013 782.808C665.525 783.672 664.325 784.872 663.413 786.408C662.549 787.944 662.117 789.744 662.117 791.808C662.117 793.728 662.573 795.48 663.485 797.064C664.397 798.648 665.621 799.896 667.157 800.808C668.693 801.72 670.349 802.176 672.125 802.176Z" fill="#FCEBE7"/>
</svg>
